<?xml version="1.0" standalone="no"?><!DOCTYPE svg PUBLIC "-//W3C//DTD SVG 1.1//EN" "http://www.w3.org/Graphics/SVG/1.1/DTD/svg11.dtd"><svg t="1592549265947" class="icon" viewBox="0 0 1024 1024" version="1.1" xmlns="http://www.w3.org/2000/svg" p-id="1995" xmlns:xlink="http://www.w3.org/1999/xlink" width="64" height="64"><defs><style type="text/css"></style></defs><path d="M595.716 972.68c-7.013 0-13.911-2.279-19.616-6.788l-178.877-142.27c-7.47-5.929-11.803-15.052-11.803-24.63v-301.706c0-1.023-0.458-1.938-1.141-2.619l-283.803-283.915c-1.14-1.14-2.222-2.341-3.137-3.591-16.023-16.822-24.521-38.031-24.521-60.446 0-47.612 38.775-86.387 86.33-86.387h703.654c47.558 0 86.331 38.775 86.331 86.387 0 22.183-8.434 43.284-23.718 59.362-0.57 0.801-1.765 2.222-2.566 2.907l-294.576 294.691c-0.682 0.686-1.14 1.657-1.14 2.684v434.962c0 12.090-6.899 23.041-17.846 28.282-4.336 2.052-9.010 3.079-13.573 3.079v0zM448.259 783.823l116.038 92.266v-369.791c0-17.846 6.899-34.494 19.386-47.098l293.664-293.664c0.912-1.085 1.77-1.997 2.684-2.967 3.877-4.109 6.211-9.863 6.211-15.853 0-12.943-10.606-23.49-23.491-23.49h-703.596c-12.941 0-23.491 10.606-23.491 23.49 0 6.047 2.341 11.865 6.557 16.196 1.537 1.597 2.909 3.308 4.22 4.903l282.318 282.373c12.372 12.372 19.504 29.535 19.504 47.098v286.539zM448.259 783.823z" p-id="1996"></path></svg>