<?xml version="1.0" standalone="no"?><!DOCTYPE svg PUBLIC "-//W3C//DTD SVG 1.1//EN" "http://www.w3.org/Graphics/SVG/1.1/DTD/svg11.dtd"><svg t="1627184739559" class="icon" viewBox="0 0 1024 1024" version="1.1" xmlns="http://www.w3.org/2000/svg" p-id="2033" xmlns:xlink="http://www.w3.org/1999/xlink" width="200" height="200"><defs><style type="text/css">@font-face { font-family: feedback-iconfont; src: url("//at.alicdn.com/t/font_1031158_1uhr8ri0pk5.eot?#iefix") format("embedded-opentype"), url("//at.alicdn.com/t/font_1031158_1uhr8ri0pk5.woff2") format("woff2"), url("//at.alicdn.com/t/font_1031158_1uhr8ri0pk5.woff") format("woff"), url("//at.alicdn.com/t/font_1031158_1uhr8ri0pk5.ttf") format("truetype"), url("//at.alicdn.com/t/font_1031158_1uhr8ri0pk5.svg#iconfont") format("svg"); }
</style></defs><path d="M935.559227 528.121166 511.998465 157.511383 88.43975 528.121166l-23.150256-26.446325L511.998465 110.804618l446.711018 390.870222L935.559227 528.121166zM935.559227 528.121166" p-id="2034"></path><path d="M860.216261 913.195382l-280.222169 0 0-215.968773L440.591135 697.226608l0 215.968773L161.359526 913.195382 161.359526 551.71656l348.856339-311.949778 350.000396 311.862797L860.216261 913.195382 860.216261 913.195382zM615.164103 878.053l209.899544 0L825.063647 567.401798 510.273171 286.890033 196.529537 567.431473l0 310.621527 208.910007 0L405.439544 662.075017l209.686696 0 0 215.977983L615.164103 878.053zM615.164103 878.053" p-id="2035"></path></svg>