<?xml version="1.0" standalone="no"?><!DOCTYPE svg PUBLIC "-//W3C//DTD SVG 1.1//EN" "http://www.w3.org/Graphics/SVG/1.1/DTD/svg11.dtd"><svg t="1627184963540" class="icon" viewBox="0 0 1152 1024" version="1.1" xmlns="http://www.w3.org/2000/svg" p-id="6293" width="27" height="24" xmlns:xlink="http://www.w3.org/1999/xlink"><defs><style type="text/css">@font-face { font-family: feedback-iconfont; src: url("//at.alicdn.com/t/font_1031158_1uhr8ri0pk5.eot?#iefix") format("embedded-opentype"), url("//at.alicdn.com/t/font_1031158_1uhr8ri0pk5.woff2") format("woff2"), url("//at.alicdn.com/t/font_1031158_1uhr8ri0pk5.woff") format("woff"), url("//at.alicdn.com/t/font_1031158_1uhr8ri0pk5.ttf") format("truetype"), url("//at.alicdn.com/t/font_1031158_1uhr8ri0pk5.svg#iconfont") format("svg"); }
</style></defs><path d="M352 185.6h704c38.4 0 64-25.6 64-64s-25.6-64-64-64h-704c-38.4 0-64 25.6-64 64s25.6 64 64 64z" p-id="6294"></path><path d="M96 121.6m-64 0a64 64 0 1 0 128 0 64 64 0 1 0-128 0Z" p-id="6295"></path><path d="M1056 441.6h-704c-38.4 0-64 25.6-64 64s25.6 64 64 64h704c38.4 0 64-25.6 64-64s-25.6-64-64-64z" p-id="6296"></path><path d="M96 505.6m-64 0a64 64 0 1 0 128 0 64 64 0 1 0-128 0Z" p-id="6297"></path><path d="M1056 825.6h-704c-38.4 0-64 25.6-64 64s25.6 64 64 64h704c38.4 0 64-25.6 64-64s-25.6-64-64-64z" p-id="6298"></path><path d="M96 889.6m-64 0a64 64 0 1 0 128 0 64 64 0 1 0-128 0Z" p-id="6299"></path></svg>