<?xml version="1.0" standalone="no"?><!DOCTYPE svg PUBLIC "-//W3C//DTD SVG 1.1//EN" "http://www.w3.org/Graphics/SVG/1.1/DTD/svg11.dtd"><svg t="1627184853180" class="icon" viewBox="0 0 1024 1024" version="1.1" xmlns="http://www.w3.org/2000/svg" p-id="3687" xmlns:xlink="http://www.w3.org/1999/xlink" width="200" height="200"><defs><style type="text/css">@font-face { font-family: feedback-iconfont; src: url("//at.alicdn.com/t/font_1031158_1uhr8ri0pk5.eot?#iefix") format("embedded-opentype"), url("//at.alicdn.com/t/font_1031158_1uhr8ri0pk5.woff2") format("woff2"), url("//at.alicdn.com/t/font_1031158_1uhr8ri0pk5.woff") format("woff"), url("//at.alicdn.com/t/font_1031158_1uhr8ri0pk5.ttf") format("truetype"), url("//at.alicdn.com/t/font_1031158_1uhr8ri0pk5.svg#iconfont") format("svg"); }
</style></defs><path d="M445.781333 378.311111c-19.456 0-35.271111 15.815111-35.271111 35.271111V450.56c0 19.456 15.815111 35.271111 35.271111 35.271111s35.271111-15.815111 35.271111-35.271111v-36.977778c0-19.456-15.815111-35.271111-35.271111-35.271111zM615.879111 485.831111c19.456 0 35.271111-15.815111 35.271111-35.271111v-36.977778c0-19.456-15.815111-35.271111-35.271111-35.271111s-35.271111 15.815111-35.271111 35.271111V450.56c0 19.456 15.815111 35.271111 35.271111 35.271111z" fill="#592B0C" p-id="3688"></path><path d="M791.665778 841.272889c-0.113778-1.024-0.227556-2.048-0.455111-2.958222-6.144-33.678222-22.983111-65.536-47.445334-89.543111-9.329778-9.216-19.456-16.952889-30.378666-23.210667 16.611556-11.377778 32.199111-24.348444 46.762666-38.798222 61.326222-61.326222 95.118222-142.904889 95.118223-229.717334s-33.792-168.391111-95.118223-229.717333-142.904889-95.118222-229.717333-95.118222c-86.812444 0-168.391111 33.792-229.717333 95.118222-61.326222 61.326222-95.118222 142.904889-95.118223 229.717333s33.792 168.391111 95.118223 229.717334c14.449778 14.449778 30.151111 27.420444 46.762666 38.798222-10.581333 6.257778-20.593778 13.994667-29.582222 23.096889-23.665778 24.007111-40.049778 56.775111-46.08 92.16-0.113778 0.568889-0.227556 1.251556-0.227555 1.820444L265.102222 898.844444c-2.275556 19.342222 11.605333 36.864 30.947556 39.139556 1.365333 0.113778 2.730667 0.227556 4.096 0.227556 17.635556 0 32.881778-13.198222 35.043555-31.175112l6.371556-55.296c8.988444-51.086222 44.942222-74.296889 74.638222-74.296888h1.820445l42.894222-2.275556c0.682667 0 1.251556-0.113778 1.820444-0.113778 21.959111 4.664889 44.600889 7.054222 67.584 7.054222 23.096889 0 45.738667-2.389333 67.811556-7.054222 0.682667 0.113778 1.365333 0.113778 2.161778 0.227556l42.439111 2.275555h1.820444c39.253333 0 69.632 36.522667 76.8 72.362667l5.347556 56.433778c1.706667 18.204444 17.066667 31.971556 35.043555 31.971555 1.137778 0 2.275556 0 3.413334-0.113777 19.342222-1.820444 33.678222-19.000889 31.744-38.456889l-5.233778-58.481778zM472.177778 706.901333c-2.730667-1.137778-5.688889-1.820444-8.760889-2.161777-42.780444-11.491556-82.033778-34.133333-114.232889-66.332445-48.469333-48.469333-75.207111-112.867556-75.207111-181.475555s26.737778-133.006222 75.207111-181.475556S462.051556 200.248889 530.659556 200.248889s133.006222 26.737778 181.475555 75.207111c48.469333 48.469333 75.207111 112.867556 75.207111 181.475556S760.490667 589.937778 712.021333 638.293333c-32.312889 32.312889-71.68 54.954667-114.688 66.446223-2.389333 0.341333-4.778667 0.910222-7.054222 1.820444-19.342222 4.551111-39.367111 6.940444-59.733333 6.940444-19.911111 0-39.480889-2.275556-58.368-6.599111z" fill="#592B0C" p-id="3689"></path></svg>